<svg xmlns="http://www.w3.org/2000/svg" viewBox="0 0 512 512">
  <path d="M187 308.7a10.1 10.1 0 00-2.7-5.1A10 10 0 00169 305a9.9 9.9 0 00-1.4 7.5 10.6 10.6 0 001.4 3.6 9.6 9.6 0 004.5 3.7 10.1 10.1 0 003.9.7 10 10 0 0010-10l-.2-1.9z"/>
  <path d="M502 481.4h-20.7V330.6a30 30 0 00-30-30h-17v-98.5a30 30 0 00-30-30h-30.7v-29A40.6 40.6 0 00400 85.7L372.7 30a10 10 0 00-18 0l-27.4 55.6a40.6 40.6 0 0026.4 57.3v29H266v-43a40.6 40.6 0 0026.4-57.3L265 16.3a10 10 0 00-18 0l-27.4 55.6A40.6 40.6 0 00246 129v43h-87.6v-29a40.6 40.6 0 0026.4-57.3L157.3 30a10 10 0 00-18 0L112 85.7a40.6 40.6 0 0026.5 57.4v29h-30.7a30 30 0 00-30 30v98.6h-17a30 30 0 00-30 29.9v150.8H10a10 10 0 100 20h492a10 10 0 100-20zM349 118.3a20.6 20.6 0 01-3.8-23.7l18.4-37.4 18.5 37.4a20.6 20.6 0 01-33 23.7zm-107.6-14a20.6 20.6 0 01-3.9-23.7L256 43.2l18.5 37.4a20.6 20.6 0 01-33 23.7zm-107.6 14a20.6 20.6 0 01-4-23.7l18.6-37.4 18.4 37.4a20.6 20.6 0 01-33 23.7zM107.7 192h296.6a10 10 0 0110 10v31.3c-4.4 1.4-9.2 2-14.8 2-14.9 0-21.7-4.5-30.3-10.3a66.2 66.2 0 00-41.4-13.6c-21 0-31.9 7.3-41.5 13.6-8.6 5.8-15.4 10.3-30.3 10.3-15 0-21.7-4.5-30.3-10.3-9.6-6.3-20.5-13.6-41.5-13.6s-31.8 7.3-41.4 13.6a46.8 46.8 0 01-30.3 10.3c-5.6 0-10.4-.6-14.8-2V202a10 10 0 0110-10zm353.6 289.3H50.7v-96.1c8.5 1.5 14 5.1 20.3 9.4a66.2 66.2 0 0041.5 13.7c21 0 31.8-7.3 41.4-13.7a46.8 46.8 0 0130.3-10.3c15 0 21.8 4.6 30.4 10.3a66.2 66.2 0 0041.4 13.7c21 0 31.8-7.3 41.4-13.7 8.6-5.7 15.4-10.3 30.4-10.3 14.9 0 21.7 4.6 30.3 10.3 9.6 6.4 20.4 13.7 41.4 13.7s31.9-7.3 41.4-13.7a50.8 50.8 0 0120.4-9.4v96zm0-116.4a67.5 67.5 0 00-31.4 13c-8.7 5.8-15.5 10.4-30.4 10.4s-21.7-4.6-30.3-10.3c-9.6-6.4-20.5-13.7-41.4-13.7-21 0-31.9 7.3-41.5 13.7-8.6 5.7-15.4 10.3-30.3 10.3-15 0-21.7-4.6-30.3-10.3a66.2 66.2 0 00-41.5-13.7c-21 0-31.8 7.3-41.4 13.7a46.8 46.8 0 01-30.3 10.3c-15 0-21.7-4.6-30.4-10.3-7.9-5.3-16.7-11.2-31.4-13v-34.5a10 10 0 0110-10h76.7a10 10 0 100-20H97.7V254c4.6 1 9.5 1.4 14.8 1.4 21 0 31.8-7.2 41.4-13.6a46.8 46.8 0 0130.3-10.3c15 0 21.8 4.5 30.4 10.3 9.6 6.4 20.4 13.6 41.4 13.6s31.8-7.2 41.4-13.6c8.6-5.8 15.4-10.3 30.4-10.3 14.9 0 21.7 4.5 30.3 10.3a66.2 66.2 0 0041.4 13.6c5.3 0 10.2-.4 14.8-1.4v46.7H217a10 10 0 100 20h234.3a10 10 0 019.9 9.9V365z"/>
  <path d="M97.5 456.5a10.1 10.1 0 00-7.8-7.8 10.1 10.1 0 00-11.2 6 10.1 10.1 0 001 9.3c.3.6.7 1.1 1.2 1.6a10 10 0 0014 0 10.6 10.6 0 002.3-3.3 10.1 10.1 0 00.5-5.8zM205 426.6a10.1 10.1 0 00-7.8-7.8 9.9 9.9 0 00-10.3 4.2 10.6 10.6 0 00-1.7 5.6 10 10 0 004.5 8.3 9.9 9.9 0 007.5 1.5 10.6 10.6 0 003.6-1.5 10.2 10.2 0 004.2-6.4 10 10 0 000-3.9zM320.6 456.5a10.1 10.1 0 00-7.8-7.8 9.9 9.9 0 00-10.3 4.2 10.6 10.6 0 00-1.5 3.6 10 10 0 004.3 10.3 10.1 10.1 0 005.5 1.7 10 10 0 0010-10c0-.7 0-1.3-.2-2zM434 432.6a10.1 10.1 0 00-2.7-5.1 10 10 0 00-14.1 0 10.7 10.7 0 00-2.2 3.3 10.1 10.1 0 001 9.3 10.8 10.8 0 002.7 2.8 10.6 10.6 0 003.6 1.5 10 10 0 0010.3-4.3 10.1 10.1 0 001.5-7.5zM334.6 269.2a10.6 10.6 0 00-1.5-3.6 10.2 10.2 0 00-6.4-4.3 9.9 9.9 0 00-10.2 4.3 10.1 10.1 0 00-1.5 7.5 10.1 10.1 0 007.8 7.8 9.9 9.9 0 0010.3-4.2 10.2 10.2 0 001.5-7.5zM204 255.5a10.1 10.1 0 00-7.8-7.8 9.9 9.9 0 00-10.3 4.2 10.6 10.6 0 00-1.5 3.6 10 10 0 004.3 10.3 10.6 10.6 0 005.5 1.7 9.9 9.9 0 005.6-1.7 10.7 10.7 0 002.7-2.8 10.6 10.6 0 001.5-3.6 10 10 0 000-3.9z"/>
</svg>
